<svg xmlns="http://www.w3.org/2000/svg" >
    <symbol id="personPlus" viewBox="0 0 640 640">
        <path d="M280 88C280 57.1 254.9 32 224 32C193.1 32 168 57.1 168 88C168 118.9 193.1 144 224 144C254.9 144 280 118.9 280 88zM304 300.7L341 350.6C353.8 333.1 369.5 317.9 387.3 305.6L331.1 229.9C306 196 266.3 176 224 176C181.7 176 142 196 116.8 229.9L46.3 324.9C35.8 339.1 38.7 359.1 52.9 369.7C67.1 380.3 87.1 377.3 97.7 363.1L144 300.7L144 576C144 593.7 158.3 608 176 608C193.7 608 208 593.7 208 576L208 416C208 407.2 215.2 400 224 400C232.8 400 240 407.2 240 416L240 576C240 593.7 254.3 608 272 608C289.7 608 304 593.7 304 576L304 300.7zM496 608C575.5 608 640 543.5 640 464C640 384.5 575.5 320 496 320C416.5 320 352 384.5 352 464C352 543.5 416.5 608 496 608zM512 400L512 448L560 448C568.8 448 576 455.2 576 464C576 472.8 568.8 480 560 480L512 480L512 528C512 536.8 504.8 544 496 544C487.2 544 480 536.8 480 528L480 480L432 480C423.2 480 416 472.8 416 464C416 455.2 423.2 448 432 448L480 448L480 400C480 391.2 487.2 384 496 384C504.8 384 512 391.2 512 400z"/>
    </symbol>
    <symbol id="save" viewBox="0 0 640 640">
        <path d="M160 96C124.7 96 96 124.7 96 160L96 480C96 515.3 124.7 544 160 544L480 544C515.3 544 544 515.3 544 480L544 237.3C544 220.3 537.3 204 525.3 192L448 114.7C436 102.7 419.7 96 402.7 96L160 96zM192 192C192 174.3 206.3 160 224 160L384 160C401.7 160 416 174.3 416 192L416 256C416 273.7 401.7 288 384 288L224 288C206.3 288 192 273.7 192 256L192 192zM320 352C355.3 352 384 380.7 384 416C384 451.3 355.3 480 320 480C284.7 480 256 451.3 256 416C256 380.7 284.7 352 320 352z"/>
    </symbol>
    <symbol id="personDef" viewBox="0 0 640 640">
        <path d="M280 88C280 57.1 254.9 32 224 32C193.1 32 168 57.1 168 88C168 118.9 193.1 144 224 144C254.9 144 280 118.9 280 88zM304 300.7L341 350.6C353.8 333.1 369.5 317.9 387.3 305.6L331.1 229.9C306 196 266.3 176 224 176C181.7 176 142 196 116.8 229.9L46.3 324.9C35.8 339.1 38.7 359.1 52.9 369.7C67.1 380.3 87.1 377.3 97.7 363.1L144 300.7L144 576C144 593.7 158.3 608 176 608C193.7 608 208 593.7 208 576L208 416C208 407.2 215.2 400 224 400C232.8 400 240 407.2 240 416L240 576C240 593.7 254.3 608 272 608C289.7 608 304 593.7 304 576L304 300.7zM640 464C640 384.5 575.5 320 496 320C416.5 320 352 384.5 352 464C352 543.5 416.5 608 496 608C575.5 608 640 543.5 640 464zM576 464C576 472.8 568.8 480 560 480L432 480C423.2 480 416 472.8 416 464C416 455.2 423.2 448 432 448L560 448C568.8 448 576 455.2 576 464z"/>
    </symbol>
    <symbol id="relations" viewBox="0 0 512 512" >
        <g>
        <path class="st0" d="M257.324,90.939c25.132,0,45.473-20.36,45.473-45.466C302.797,20.35,282.456,0,257.324,0
            c-25.123,0-45.474,20.35-45.474,45.473C211.85,70.579,232.201,90.939,257.324,90.939z"/>
                <path class="st0" d="M258.24,194.075h61.45c0,0,14.749-31.952-1.513-60.266c-9.19-16.002-30.716-25.771-59.937-25.771
            c-29.23,0-50.756,9.769-59.946,25.771c-16.261,28.314-1.513,60.266-1.513,60.266H258.24z"/>
                <path class="st0" d="M69.586,408.855c25.131,0,45.482-20.359,45.482-45.465c0-25.131-20.351-45.464-45.482-45.464
            c-25.132,0-45.482,20.334-45.482,45.464C24.104,388.496,44.454,408.855,69.586,408.855z"/>
                <path class="st0" d="M70.51,425.973c-29.229,0-50.755,9.76-59.945,25.745C-5.705,480.048,9.053,512,9.053,512H70.51h61.45
            c0,0,14.748-31.952-1.522-60.282C121.258,435.733,99.731,425.973,70.51,425.973z"/>
                <path class="st0" d="M440.575,408.855c25.132,0,45.482-20.359,45.482-45.465c0-25.131-20.35-45.464-45.482-45.464
            c-25.123,0-45.474,20.334-45.474,45.464C395.102,388.496,415.452,408.855,440.575,408.855z"/>
                <path class="st0" d="M501.428,451.718c-9.172-15.985-30.707-25.745-59.928-25.745c-29.23,0-50.756,9.76-59.936,25.745
            C365.293,480.048,380.05,512,380.05,512h61.45h61.45C502.95,512,517.707,480.048,501.428,451.718z"/>
                <polygon class="st0" points="267.559,337.385 267.559,226.036 267.559,225.154 266.678,225.154 248.972,225.154 248.09,225.154
            248.09,226.036 248.09,337.36 151.662,393.043 150.893,393.492 151.334,394.254 160.186,409.59 160.636,410.359 161.398,409.918
            257.808,354.244 354.236,409.927 354.997,410.368 355.446,409.599 364.299,394.262 364.74,393.501 363.97,393.052 	"/>
        </g>
    </symbol>
    <symbol id="removeRelations" viewBox="0 0 128 128">
        <g id="H1_copy">
            <g>
                <g>
                    <path d="M64.4,89.6l-3.1,0l0-16.5l3.1,0L64.4,89.6z M64.5,56.6l-3.1,0l0-16.5l3.1,0L64.5,56.6z M64.6,23.6l-3.1,0l0-16.5l3.1,0
                        L64.6,23.6z"/>
                </g>
            </g>
        </g>
        <g id="Man">
        <g>
            <circle cx="101" cy="17.4" r="9.7"/>
            <path d="M113.2,29.6H89c-6.7,0-12.1,5.4-12.1,12.1v29.6c0,2.3,1.9,4.3,4.3,4.3s4.3-1.9,4.3-4.3V44.2c0-0.7,0.6-1.2,1.2-1.2
                c0.7,0,1.2,0.6,1.2,1.2v73.5c0,3.6,2.7,6.6,6.1,6.6c3.4,0,6.1-3,6.1-6.6V75.8c0-0.7,0.6-1.2,1.2-1.2c0.7,0,1.2,0.6,1.2,1.2v41.9
                c0,3.6,2.7,6.6,6.1,6.6c3.4,0,6.1-3,6.1-6.6V44.2c0-0.7,0.6-1.2,1.2-1.2c0.7,0,1.2,0.6,1.2,1.2v27.3c0,2.3,1.9,4.3,4.3,4.3
                s4.3-1.9,4.3-4.3V41.7C125.3,35,119.8,29.6,113.2,29.6z"/>
        </g>
            <g>
                <circle cx="27.2" cy="17.4" r="9.7"/>
                        <path d="M39.4,29.6H15.1C8.4,29.6,3,35,3,41.7v29.6c0,2.3,1.9,4.3,4.3,4.3s4.3-1.9,4.3-4.3V44.2c0-0.7,0.6-1.2,1.2-1.2
                    c0.7,0,1.2,0.6,1.2,1.2v73.5c0,3.6,2.7,6.6,6.1,6.6c3.4,0,6.1-3,6.1-6.6V75.8c0-0.7,0.6-1.2,1.2-1.2s1.2,0.6,1.2,1.2v41.9
                    c0,3.6,2.7,6.6,6.1,6.6c3.4,0,6.1-3,6.1-6.6V44.2c0-0.7,0.6-1.2,1.2-1.2s1.2,0.6,1.2,1.2v27.3c0,2.3,1.9,4.3,4.3,4.3
                    c2.4,0,4.3-1.9,4.3-4.3V41.7C51.5,35,46,29.6,39.4,29.6z"/>
            </g>
        </g>
        <g id="Layer_1">
            <path d="M74.6,116.4c-0.7-2.6-4.2-4.7-7.2-1.9l-2.8-10.2l6.2-17.4c-0.2-0.1-0.5,0-0.7,0.4l-7,12.8l-2-3.6v6.4l0.5,1.4l-2.8,10.2
                c-3-2.8-6.5-0.7-7.2,1.9c-0.6,2.3,0.5,4.6,3.2,5.3c2.1,0.6,4.5-0.7,5.2-3.1l2.7-10.1h0.9l2.7,10.1c0.7,2.4,3.1,3.6,5.2,3.1
                C74.1,121,75.3,118.7,74.6,116.4z M57.8,118c-0.3,1.1-1.5,1.8-2.6,1.5c-1.1-0.3-1.8-1.5-1.5-2.6c0.3-1.1,1.5-1.8,2.6-1.5
                C57.4,115.7,58.1,116.9,57.8,118z M63.1,105.2c-0.5,0-0.9-0.4-0.9-0.9c0-0.5,0.4-0.9,0.9-0.9c0.5,0,0.9,0.4,0.9,0.9
                C64,104.9,63.6,105.2,63.1,105.2z M71.1,119.5c-1.1,0.3-2.3-0.4-2.6-1.5c-0.3-1.1,0.4-2.3,1.5-2.6c1.1-0.3,2.3,0.4,2.6,1.5
                C72.9,118,72.3,119.2,71.1,119.5z"/>
        </g>
    </symbol>
    <symbol id="editPerson" viewBox="0 0 24 24"  >
        <path d="M6,7a5,5,0,1,1,5,5A5,5,0,0,1,6,7Zm5,12.61a2,2,0,0,1,.59-1.41l4-4A6.26,6.26,0,0,0,14,14H8a6,6,0,0,0-6,6,2,2,0,0,0,2,2h6a1,1,0,0,0,1-1Z">
        </path>
        <path d="M20.31,12.29l1.4,1.4a1,1,0,0,1,0,1.4L15.1,21.71a1.05,1.05,0,0,1-.71.29H13a1,1,0,0,1-1-1V19.61a1.05,1.05,0,0,1,.29-.71l6.62-6.61A1,1,0,0,1,20.31,12.29Z">
        </path>
    </symbol>
    <svg id="align" viewBox="0 0 24 24">
        <path fill-rule="evenodd" clip-rule="evenodd" d="M14 9.5V11.25V12.75V14.5C14 15.4346 14 15.9019 14.201 16.25C14.3326 16.478 14.522 16.6674 14.75 16.799C15.0981 17 15.5654 17 16.5 17C17.4346 17 17.9019 17 18.25 16.799C18.478 16.6674 18.6674 16.478 18.799 16.25C19 15.9019 19 15.4346 19 14.5V12.75V11.25V9.5C19 8.56538 19 8.09808 18.799 7.75C18.6674 7.52197 18.478 7.33261 18.25 7.20096C17.9019 7 17.4346 7 16.5 7C15.5654 7 15.0981 7 14.75 7.20096C14.522 7.33261 14.3326 7.52197 14.201 7.75C14 8.09808 14 8.56538 14 9.5Z" fill="#1C274C"/>
        <path d="M7.5 5C6.56538 5 6.09808 5 5.75 5.20096C5.52197 5.33261 5.33261 5.52197 5.20096 5.75C5 6.09808 5 6.56538 5 7.5L5 11.25V12.75L5 16.5C5 17.4346 5 17.9019 5.20096 18.25C5.33261 18.478 5.52197 18.6674 5.75 18.799C6.09808 19 6.56538 19 7.5 19C8.43462 19 8.90192 19 9.25 18.799C9.47803 18.6674 9.66739 18.478 9.79904 18.25C10 17.9019 10 17.4346 10 16.5V12.75L10 11.25V7.5C10 6.56538 10 6.09808 9.79904 5.75C9.66739 5.52197 9.47803 5.33261 9.25 5.20096C8.90192 5 8.43462 5 7.5 5Z" fill="#1C274C"/>
        <g opacity="0.5">
            <path d="M5 11.25H2C1.58579 11.25 1.25 11.5858 1.25 12C1.25 12.4142 1.58579 12.75 2 12.75H5V11.25Z" fill="#1C274C"/>
            <path d="M10 12.75L14 12.75V11.25H10L10 12.75Z" fill="#1C274C"/>
            <path d="M19 12.75L22 12.75C22.4142 12.75 22.75 12.4142 22.75 12C22.75 11.5858 22.4142 11.25 22 11.25L19 11.25V12.75Z" fill="#1C274C"/>
        </g>
    </svg>
</svg>
