<svg xmlns="http://www.w3.org/2000/svg" >
    <symbol id="personPlus" viewBox="0 0 640 640">
        <path d="M280 88C280 57.1 254.9 32 224 32C193.1 32 168 57.1 168 88C168 118.9 193.1 144 224 144C254.9 144 280 118.9 280 88zM304 300.7L341 350.6C353.8 333.1 369.5 317.9 387.3 305.6L331.1 229.9C306 196 266.3 176 224 176C181.7 176 142 196 116.8 229.9L46.3 324.9C35.8 339.1 38.7 359.1 52.9 369.7C67.1 380.3 87.1 377.3 97.7 363.1L144 300.7L144 576C144 593.7 158.3 608 176 608C193.7 608 208 593.7 208 576L208 416C208 407.2 215.2 400 224 400C232.8 400 240 407.2 240 416L240 576C240 593.7 254.3 608 272 608C289.7 608 304 593.7 304 576L304 300.7zM496 608C575.5 608 640 543.5 640 464C640 384.5 575.5 320 496 320C416.5 320 352 384.5 352 464C352 543.5 416.5 608 496 608zM512 400L512 448L560 448C568.8 448 576 455.2 576 464C576 472.8 568.8 480 560 480L512 480L512 528C512 536.8 504.8 544 496 544C487.2 544 480 536.8 480 528L480 480L432 480C423.2 480 416 472.8 416 464C416 455.2 423.2 448 432 448L480 448L480 400C480 391.2 487.2 384 496 384C504.8 384 512 391.2 512 400z"/>
    </symbol>
    <symbol id="save" viewBox="0 0 640 640">
        <path d="M160 96C124.7 96 96 124.7 96 160L96 480C96 515.3 124.7 544 160 544L480 544C515.3 544 544 515.3 544 480L544 237.3C544 220.3 537.3 204 525.3 192L448 114.7C436 102.7 419.7 96 402.7 96L160 96zM192 192C192 174.3 206.3 160 224 160L384 160C401.7 160 416 174.3 416 192L416 256C416 273.7 401.7 288 384 288L224 288C206.3 288 192 273.7 192 256L192 192zM320 352C355.3 352 384 380.7 384 416C384 451.3 355.3 480 320 480C284.7 480 256 451.3 256 416C256 380.7 284.7 352 320 352z"/>
    </symbol>
    <symbol id="personDef" viewBox="0 0 640 640">
        <path d="M280 88C280 57.1 254.9 32 224 32C193.1 32 168 57.1 168 88C168 118.9 193.1 144 224 144C254.9 144 280 118.9 280 88zM304 300.7L341 350.6C353.8 333.1 369.5 317.9 387.3 305.6L331.1 229.9C306 196 266.3 176 224 176C181.7 176 142 196 116.8 229.9L46.3 324.9C35.8 339.1 38.7 359.1 52.9 369.7C67.1 380.3 87.1 377.3 97.7 363.1L144 300.7L144 576C144 593.7 158.3 608 176 608C193.7 608 208 593.7 208 576L208 416C208 407.2 215.2 400 224 400C232.8 400 240 407.2 240 416L240 576C240 593.7 254.3 608 272 608C289.7 608 304 593.7 304 576L304 300.7zM640 464C640 384.5 575.5 320 496 320C416.5 320 352 384.5 352 464C352 543.5 416.5 608 496 608C575.5 608 640 543.5 640 464zM576 464C576 472.8 568.8 480 560 480L432 480C423.2 480 416 472.8 416 464C416 455.2 423.2 448 432 448L560 448C568.8 448 576 455.2 576 464z"/>
    </symbol>
    <symbol id="relations" viewBox="0 0 512 512" >
        <g>
	<path class="st0" d="M257.324,90.939c25.132,0,45.473-20.36,45.473-45.466C302.797,20.35,282.456,0,257.324,0
		c-25.123,0-45.474,20.35-45.474,45.473C211.85,70.579,232.201,90.939,257.324,90.939z"/>
            <path class="st0" d="M258.24,194.075h61.45c0,0,14.749-31.952-1.513-60.266c-9.19-16.002-30.716-25.771-59.937-25.771
		c-29.23,0-50.756,9.769-59.946,25.771c-16.261,28.314-1.513,60.266-1.513,60.266H258.24z"/>
            <path class="st0" d="M69.586,408.855c25.131,0,45.482-20.359,45.482-45.465c0-25.131-20.351-45.464-45.482-45.464
		c-25.132,0-45.482,20.334-45.482,45.464C24.104,388.496,44.454,408.855,69.586,408.855z"/>
            <path class="st0" d="M70.51,425.973c-29.229,0-50.755,9.76-59.945,25.745C-5.705,480.048,9.053,512,9.053,512H70.51h61.45
		c0,0,14.748-31.952-1.522-60.282C121.258,435.733,99.731,425.973,70.51,425.973z"/>
            <path class="st0" d="M440.575,408.855c25.132,0,45.482-20.359,45.482-45.465c0-25.131-20.35-45.464-45.482-45.464
		c-25.123,0-45.474,20.334-45.474,45.464C395.102,388.496,415.452,408.855,440.575,408.855z"/>
            <path class="st0" d="M501.428,451.718c-9.172-15.985-30.707-25.745-59.928-25.745c-29.23,0-50.756,9.76-59.936,25.745
		C365.293,480.048,380.05,512,380.05,512h61.45h61.45C502.95,512,517.707,480.048,501.428,451.718z"/>
            <polygon class="st0" points="267.559,337.385 267.559,226.036 267.559,225.154 266.678,225.154 248.972,225.154 248.09,225.154
		248.09,226.036 248.09,337.36 151.662,393.043 150.893,393.492 151.334,394.254 160.186,409.59 160.636,410.359 161.398,409.918
		257.808,354.244 354.236,409.927 354.997,410.368 355.446,409.599 364.299,394.262 364.74,393.501 363.97,393.052 	"/>
</g>
</symbol>
</svg>
